<?xml version="1.0" encoding="UTF-8"?>
<svg id="Layer_1" data-name="Layer 1" xmlns="http://www.w3.org/2000/svg" viewBox="0 0 131.78 117.13">
  <path d="m10.89,81.91c-3.33,2.99-6.51,5.85-10.4,9.34C.26,89.02,0,87.65,0,86.27c0-12.66.09-25.33.06-37.99-.02-8.45,3.81-14.67,10.88-18.97,8.68-5.27,17.45-10.4,26.18-15.59,5.87-3.49,11.75-6.95,17.59-10.48,7.81-4.73,15.34-4.08,23.03.55,13.85,8.32,27.81,16.45,41.81,24.51,5.31,3.06,9.22,7.22,10.87,13.09.89,3.16,1.27,6.55,1.3,9.85.12,13.66.04,27.32,0,40.98-.02,5.38-.54,10.66-3.71,15.28-3.68,5.38-8.68,8.66-15.23,9.26-2.65.24-5.32.25-7.99.25-20,.05-39.99.07-59.99.1-5.09,0-10.19,0-16.1,0,4.41-3.98,8.2-7.39,12.25-11.04,4,0,8.15,0,12.3,0,18,.04,35.99.08,53.99.12,1.33,0,2.67,0,4-.13,5.09-.48,8.59-3.91,9.02-8.99.25-2.98.31-5.99.32-8.99.06-11.83.07-23.66.09-35.48,0-1.33-.16-2.66-.17-3.99-.03-4.79-2.28-8.12-6.4-10.51-8.79-5.09-17.49-10.32-26.23-15.49-5.01-2.97-10.09-5.83-15.04-8.91-4.89-3.04-9.52-3.04-14.5,0-13.79,8.4-27.68,16.64-41.6,24.84-4.22,2.49-5.85,6.19-5.87,10.82-.02,8.83,0,17.66.02,26.49,0,1.83,0,3.66,0,6.05Z" fill="rgb(37 99 235)"/>
  <path d="m45.21,81.44c-2.08,1.87-3.91,3.52-5.86,5.27.02,4.24-2.63,6.92-5.57,9.52-6.12,5.41-12.13,10.92-18.21,16.37-1.1.98-2.24,1.89-3.45,2.85-4.7-2.13-8.28-5.22-10.46-10.24,2.61-2.41,5.15-4.76,7.7-7.09,5.05-4.6,10.16-9.14,15.16-13.79,2.53-2.35,5.24-4.12,9-3.71,2.22-2.03,4.4-4.04,6.81-6.24-3-8.6-3.44-17,1.22-25.12,3.18-5.54,7.57-9.78,13.43-12.22,12.46-5.18,26.52-.81,33.94,10.33,7.26,10.89,5.78,25.27-3.58,34.84-5.57,5.7-12.59,8.13-20.31,8.12-7.63,0-14.05-3.56-19.82-8.89Zm40.01-18.85c0-10.73-8.46-19.32-19.19-19.49-10.57-.16-19.38,8.54-19.46,19.22-.08,10.83,8.36,19.59,18.95,19.67,11,.08,19.7-8.49,19.7-19.41Z" fill="rgb(37 99 235)"/>
</svg>